# xmcd CD database file
#
# Track frame offsets:
#	187
#	19500
#	45175
#	63082
#	83177
#	96155
#	113102
#	137520
#	158960
#	177715
#	194437
#	215492
#
# Disc length: 3107 seconds
#
# Revision: 0
# Processed by: cddbd v1.5.1PL0 Copyright (c) Steve Scherf et al.
# Submitted via: CDex 1.51
#
DISCID=9b0c210c
DTITLE=阿川泰子 - 10th AVENUE
DYEAR=1900
DGENRE=Jazz
TTITLE0=Take The "A" Train
TTITLE1=Lover,Come Back To Me!
TTITLE2=Skindo-Le-Le
TTITLE3=Cinema
TTITLE4=Nwe York Afternoon
TTITLE5=Never Wanna Say Goodnight
TTITLE6=Cross To Bear
TTITLE7=L.A.Night
TTITLE8=Velas(September)
TTITLE9=Alfie
TTITLE10=What A Woman Feels Inside
TTITLE11=Away
EXTD=
EXTT0=
EXTT1=
EXTT2=
EXTT3=
EXTT4=
EXTT5=
EXTT6=
EXTT7=
EXTT8=
EXTT9=
EXTT10=
EXTT11=
PLAYORDER=
